<svg viewBox="0 0 400 400" xmlns="http://www.w3.org/2000/svg">
  <defs>
    <linearGradient id="gradientProfile" x1="0%" y1="0%" x2="100%" y2="100%">
      <stop offset="0%" stop-color="#6366f1" />
      <stop offset="100%" stop-color="#a855f7" />
    </linearGradient>
  </defs>
  <rect width="400" height="400" fill="#1f2937" />
  <circle cx="200" cy="150" r="100" fill="url(#gradientProfile)" opacity="0.5" />
  <path d="M150,120 C150,80 250,80 250,120 C250,150 230,170 200,180 C170,170 150,150 150,120 Z" fill="#111827" />
  <circle cx="170" cy="120" r="10" fill="#ffffff" />
  <circle cx="230" cy="120" r="10" fill="#ffffff" />
  <path d="M180,150 Q200,170 220,150" stroke="#ffffff" stroke-width="4" fill="none" />
  <path d="M100,200 L300,200 L300,350 L100,350 Z" fill="#111827" />
  <path d="M150,200 L150,350 L250,350 L250,200 Z" fill="#1f2937" />
  <path d="M160,220 L240,220 L240,230 L160,230 Z" fill="#6366f1" />
  <path d="M160,250 L200,250 L200,260 L160,260 Z" fill="#6366f1" />
  <path d="M160,280 L220,280 L220,290 L160,290 Z" fill="#6366f1" />
  <path d="M160,310 L180,310 L180,320 L160,320 Z" fill="#6366f1" />
</svg>
